<svg width="40" height="30" viewBox="0 0 40 30" fill="none" xmlns="http://www.w3.org/2000/svg">
<path d="M30.8185 14.8281H8.16581C7.64626 14.8281 7.63031 15.2379 7.62429 15.7472L7.46686 29.0588C7.46074 29.5765 7.88715 29.9994 8.41528 29.9994H30.8185C31.3423 29.9994 31.767 29.5831 31.767 29.0696V15.758C31.767 15.2444 31.3423 14.8281 30.8185 14.8281Z" fill="url(#paint0_linear_12665_6416)"/>
<path d="M30.8185 14.8281H8.16581C7.64626 14.8281 7.63031 15.2379 7.62429 15.7472L7.46686 29.0588C7.46074 29.5765 7.88715 29.9994 8.41528 29.9994H30.8185C31.3423 29.9994 31.767 29.5831 31.767 29.0696V15.758C31.767 15.2444 31.3423 14.8281 30.8185 14.8281Z" fill="black" fill-opacity="0.2"/>
<path d="M25.3 0.5084C25.1382 0.196469 24.8115 0 24.4545 0H12.4058C11.6979 0 11.2395 0.732699 11.5604 1.35131L26.1557 29.4916C26.3175 29.8035 26.6442 30 27.0012 30H39.0499C39.7578 30 40.2162 29.2673 39.8953 28.6487L25.3 0.5084Z" fill="url(#paint1_linear_12665_6416)"/>
<path d="M7.35272 15.32C7.70912 14.6657 8.6651 14.6638 9.02421 15.3166L16.3348 28.6068C16.6756 29.2263 16.2179 29.978 15.4999 29.978H0.949797C0.233538 29.978 -0.224265 29.2295 0.113141 28.6101L7.35272 15.32Z" fill="url(#paint2_linear_12665_6416)"/>
<defs>
<linearGradient id="paint0_linear_12665_6416" x1="13.0295" y1="16.4848" x2="16.4362" y2="28.7128" gradientUnits="userSpaceOnUse">
<stop stop-color="#2049DA"/>
<stop offset="1" stop-color="#6F00FF"/>
</linearGradient>
<linearGradient id="paint1_linear_12665_6416" x1="18.2987" y1="15" x2="33.2798" y2="20.6859" gradientUnits="userSpaceOnUse">
<stop stop-color="#2049DA"/>
<stop offset="1" stop-color="#6F00FF"/>
</linearGradient>
<linearGradient id="paint2_linear_12665_6416" x1="3.94343" y1="22.4031" x2="12.2605" y2="26.0054" gradientUnits="userSpaceOnUse">
<stop stop-color="#2049DA"/>
<stop offset="1" stop-color="#6F00FF"/>
</linearGradient>
</defs>
</svg>
