<?xml version="1.0" standalone="no"?>
<!DOCTYPE svg PUBLIC "-//W3C//DTD SVG 20010904//EN"
 "http://www.w3.org/TR/2001/REC-SVG-20010904/DTD/svg10.dtd">
<svg version="1.0" xmlns="http://www.w3.org/2000/svg"
 width="304.000000pt" height="304.000000pt" viewBox="0 0 304.000000 304.000000"
 preserveAspectRatio="xMidYMid meet">

<g transform="translate(0.000000,304.000000) scale(0.100000,-0.100000)"
fill="#2c232e" stroke="none">
<path d="M913 2386 c-103 -33 -194 -114 -241 -214 l-27 -57 0 -595 0 -595 32
-66 c39 -80 111 -150 191 -187 l57 -27 595 0 595 0 66 32 c80 39 150 111 187
191 l27 57 0 595 0 595 -27 57 c-37 80 -107 152 -187 191 l-66 32 -580 2
c-460 2 -589 -1 -622 -11z m322 -531 c51 -93 98 -171 104 -173 8 -3 11 50 11
172 l0 176 25 0 25 0 0 -201 0 -200 -51 3 -50 3 -93 170 c-51 93 -98 171 -105
173 -8 3 -11 -45 -11 -172 l0 -176 -25 0 -25 0 0 201 0 200 51 -3 51 -3 93
-170z m455 48 c0 -141 11 -179 62 -216 35 -26 104 -27 142 -2 46 30 56 69 56
215 l0 130 25 0 25 0 0 -138 c0 -126 -2 -143 -23 -183 -52 -97 -194 -121 -276
-46 -49 45 -61 91 -61 235 l0 132 25 0 25 0 0 -127z m-344 -520 c64 -45 70
-130 13 -177 -17 -14 -37 -26 -44 -26 -30 0 -24 -22 25 -89 27 -38 50 -72 50
-75 0 -3 -12 -6 -27 -6 -24 0 -37 13 -83 80 l-55 80 -67 0 -68 0 0 -80 c0 -79
0 -80 -25 -80 l-25 0 0 201 0 201 138 -4 c122 -3 140 -5 168 -25z m654 2 c0
-24 -2 -25 -75 -25 l-75 0 0 -150 0 -150 75 0 c73 0 75 -1 75 -25 l0 -25 -180
0 -180 0 0 25 c0 25 1 25 80 25 l81 0 -3 148 -3 147 -77 3 c-75 3 -78 4 -78
27 l0 25 180 0 180 0 0 -25z"/>
<path d="M1090 1290 l0 -70 105 0 c99 0 107 2 130 25 32 31 32 59 0 90 -23 23
-31 25 -130 25 l-105 0 0 -70z"/>
</g>
</svg>
