<svg width="304" height="304" viewBox="0 0 304 304" fill="none" xmlns="http://www.w3.org/2000/svg">
<rect x="78" y="79" width="152" height="145" rx="72.5" fill="#BEAAFF"/>
<path d="M200.699 64H104.301C93.8776 64 83.8813 68.1406 76.511 75.511C69.1406 82.8813 65 92.8776 65 103.301V199.699C65 210.122 69.1406 220.119 76.511 227.489C83.8813 234.859 93.8776 239 104.301 239H200.699C211.122 239 221.119 234.859 228.489 227.489C235.859 220.119 240 210.122 240 199.699V103.301C240 92.8776 235.859 82.8813 228.489 75.511C221.119 68.1406 211.122 64 200.699 64ZM140.636 202.372H134.092L122.839 186.248H109.918V202.387H104.464V162.716H127.989C134.744 162.716 140.628 167.725 140.628 174.48C140.628 180.89 135.319 185.733 129.001 186.2L140.636 202.372ZM140.636 140.277H130.384L111.434 105.637H109.91V140.273H104.46V100.628H114.682L133.636 135.264H135.163V100.628H140.636V140.277ZM164.364 100.628H169.815V123.722C169.815 131.345 174.82 137.011 182.45 137.011C190.081 137.011 195.09 131.345 195.09 123.722V100.628H200.532V123.722C200.532 134.174 192.902 142.023 182.45 142.023C171.998 142.023 164.364 134.174 164.364 123.722V100.628ZM200.543 167.736H185.29V197.363H200.54V202.372H164.364V197.363H179.618V167.736H164.364V162.723H200.532L200.543 167.736ZM135.193 174.487C135.193 178.629 131.693 181.246 128 181.246H109.918V167.736H128C131.704 167.736 135.193 170.346 135.193 174.487Z" fill="#2C232E"/>
</svg>
